
v -1      -1       1
v -1      -1      -1
v -1       1       1
v -1       1      -1
v -1      -1      -1
v -1      -1       1
v  1      -1      -1
v  1      -1       1
v  1       1       1
v -1       1       1
v  1       1      -1
v -1       1      -1
v  1      -1      -1
v  1      -1       1
v  1       1      -1
v  1       1       1
v -1      -1      -1
v  1      -1      -1
v -1       1      -1
v  1       1      -1
v -0.4889 -1.0005 -0.0048
v -0.7710 -1.0005 -0.4176
v -0.3581 -1.0005 -0.6997
v -0.0760 -1.0005 -0.2868
v -0.4889  0.0158 -0.0048
v -0.0760  0.0158 -0.2868
v -0.3581  0.0158 -0.6997
v -0.7710  0.0158 -0.4176
v  0.2774 -1.0012  0.4640
v  0.2774 -1.0012 -0.0028
v  0.7444 -1.0012 -0.0028
v  0.7444 -1.0012  0.4640
v  0.2774 -0.5342  0.4640
v  0.7444 -0.5342  0.4640
v  0.7444 -0.5342 -0.0028
v  0.2774 -0.5342 -0.0028

vn  1       0  0
vn  0       1  0
vn  0      -1  0
vn -1       0  0
vn  0       0  1
vn  0      -1  0
vn  0       1  0
vn  0.5640  0  0.8258
vn  0.8257  0 -0.5641
vn -0.5641  0 -0.8257
vn -0.8256  0  0.5642
vn  0      -1  0
vn  0       1  0
vn  0       0  1
vn  1       0  0
vn  0       0 -1
vn -1       0  0

o BlueWall
usemtl BlueWall
f 13//4 14//4 15//4
f 16//4 15//4 14//4